G04*
G04 #@! TF.GenerationSoftware,Altium Limited,Altium Designer,20.0.13 (296)*
G04*
G04 Layer_Color=8421504*
%FSLAX44Y44*%
%MOMM*%
G71*
G01*
G75*
%ADD13R,3.0000X1.5000*%
%ADD14R,1.5000X1.5000*%
%ADD15R,5.5000X1.5000*%
%ADD16R,1.5000X5.5000*%
D13*
X1076500Y1073500D02*
D03*
X593289Y666336D02*
D03*
D14*
X1080805Y590912D02*
D03*
Y946512D02*
D03*
Y921112D02*
D03*
Y895712D02*
D03*
Y870312D02*
D03*
Y844912D02*
D03*
Y819512D02*
D03*
Y794112D02*
D03*
Y768712D02*
D03*
Y743312D02*
D03*
Y717912D02*
D03*
Y692512D02*
D03*
Y667112D02*
D03*
Y641712D02*
D03*
Y616312D02*
D03*
X589933Y743550D02*
D03*
Y1099150D02*
D03*
Y1073750D02*
D03*
Y1048350D02*
D03*
Y1022950D02*
D03*
Y997550D02*
D03*
Y972150D02*
D03*
Y946750D02*
D03*
Y921350D02*
D03*
Y895950D02*
D03*
Y870550D02*
D03*
Y845150D02*
D03*
Y819750D02*
D03*
Y794350D02*
D03*
Y768950D02*
D03*
D15*
X948544Y666869D02*
D03*
Y641469D02*
D03*
Y616069D02*
D03*
X725019D02*
D03*
Y641469D02*
D03*
Y666869D02*
D03*
Y692269D02*
D03*
Y717669D02*
D03*
Y743069D02*
D03*
Y768469D02*
D03*
Y793869D02*
D03*
Y819269D02*
D03*
Y844669D02*
D03*
Y870069D02*
D03*
Y895469D02*
D03*
Y920869D02*
D03*
Y946269D02*
D03*
Y971669D02*
D03*
Y997069D02*
D03*
Y1022469D02*
D03*
Y1047869D02*
D03*
Y1073269D02*
D03*
Y1098669D02*
D03*
X948544Y692269D02*
D03*
Y717669D02*
D03*
Y743069D02*
D03*
Y768469D02*
D03*
Y793869D02*
D03*
Y819269D02*
D03*
Y844669D02*
D03*
Y870069D02*
D03*
Y895469D02*
D03*
Y920869D02*
D03*
Y946269D02*
D03*
Y971669D02*
D03*
Y997069D02*
D03*
Y1022469D02*
D03*
Y1047869D02*
D03*
Y1073269D02*
D03*
Y1098669D02*
D03*
D16*
X862182Y593207D02*
D03*
X836782D02*
D03*
X811382D02*
D03*
M02*
