G04*
G04 #@! TF.GenerationSoftware,Altium Limited,Altium Designer,20.0.13 (296)*
G04*
G04 Layer_Color=16777215*
%FSLAX44Y44*%
%MOMM*%
G71*
G01*
G75*
%ADD10C,0.1530*%
%ADD11C,0.2000*%
%ADD12C,0.1524*%
D10*
X1094000Y1063500D02*
Y1083500D01*
X1059000Y1063500D02*
X1094000D01*
X1059000D02*
Y1083500D01*
X1094000D01*
X610789Y656336D02*
Y676336D01*
X575789Y656336D02*
X610789D01*
X575789D02*
Y676336D01*
X610789D01*
D11*
X1094805Y576912D02*
Y708512D01*
X1066805Y576912D02*
Y960512D01*
Y576912D02*
X1094805D01*
Y708512D02*
Y960512D01*
X1066805D02*
X1094805D01*
X603933Y729550D02*
Y861150D01*
X575933Y729550D02*
Y1113150D01*
Y729550D02*
X603933D01*
Y861150D02*
Y1113150D01*
X575933D02*
X603933D01*
X698071Y593069D02*
X794486D01*
X879065D02*
X975555D01*
X748019Y1121669D02*
X975501D01*
X697998D02*
X748019D01*
X975501Y1112081D02*
Y1121669D01*
X697998Y1112081D02*
Y1121669D01*
X975555Y593069D02*
Y602658D01*
X698071Y593069D02*
Y602658D01*
D12*
X1042100Y951491D02*
X1035329D01*
Y946413D01*
X1038715D01*
X1035329D01*
Y941335D01*
X1052257D02*
X1045486D01*
X1052257Y948106D01*
Y949799D01*
X1050564Y951491D01*
X1047178D01*
X1045486Y949799D01*
X1055642D02*
X1057335Y951491D01*
X1060721D01*
X1062413Y949799D01*
Y948106D01*
X1060721Y946413D01*
X1059028D01*
X1060721D01*
X1062413Y944720D01*
Y943028D01*
X1060721Y941335D01*
X1057335D01*
X1055642Y943028D01*
X1035349Y595892D02*
Y589121D01*
X1038735Y585736D01*
X1042120Y589121D01*
Y595892D01*
X1052277Y594200D02*
X1050584Y595892D01*
X1047199D01*
X1045506Y594200D01*
Y587429D01*
X1047199Y585736D01*
X1050584D01*
X1052277Y587429D01*
X1062434Y594200D02*
X1060741Y595892D01*
X1057355D01*
X1055663Y594200D01*
Y587429D01*
X1057355Y585736D01*
X1060741D01*
X1062434Y587429D01*
X1035329Y646692D02*
Y639921D01*
X1038715Y636535D01*
X1042100Y639921D01*
Y646692D01*
X1052257Y644999D02*
X1050564Y646692D01*
X1047179D01*
X1045486Y644999D01*
Y638228D01*
X1047179Y636535D01*
X1050564D01*
X1052257Y638228D01*
X1062414Y644999D02*
X1060721Y646692D01*
X1057335D01*
X1055642Y644999D01*
Y638228D01*
X1057335Y636535D01*
X1060721D01*
X1062414Y638228D01*
X1042100Y672092D02*
X1035329D01*
Y667013D01*
X1038715D01*
X1035329D01*
Y661935D01*
X1045486Y670399D02*
X1047178Y672092D01*
X1050564D01*
X1052257Y670399D01*
Y663628D01*
X1050564Y661935D01*
X1047178D01*
X1045486Y663628D01*
Y670399D01*
X1055642D02*
X1057335Y672092D01*
X1060721D01*
X1062413Y670399D01*
Y663628D01*
X1060721Y661935D01*
X1057335D01*
X1055642Y663628D01*
Y670399D01*
X1042100Y697492D02*
X1035329D01*
Y692413D01*
X1038715D01*
X1035329D01*
Y687335D01*
X1045486Y695799D02*
X1047178Y697492D01*
X1050564D01*
X1052257Y695799D01*
Y689028D01*
X1050564Y687335D01*
X1047178D01*
X1045486Y689028D01*
Y695799D01*
X1055642Y687335D02*
X1059028D01*
X1057335D01*
Y697492D01*
X1055642Y695799D01*
X1042100Y722892D02*
X1035329D01*
Y717813D01*
X1038715D01*
X1035329D01*
Y712735D01*
X1045486Y721199D02*
X1047179Y722892D01*
X1050564D01*
X1052257Y721199D01*
Y714428D01*
X1050564Y712735D01*
X1047179D01*
X1045486Y714428D01*
Y721199D01*
X1062414Y712735D02*
X1055642D01*
X1062414Y719506D01*
Y721199D01*
X1060721Y722892D01*
X1057335D01*
X1055642Y721199D01*
X1042100Y748292D02*
X1035329D01*
Y743213D01*
X1038715D01*
X1035329D01*
Y738135D01*
X1045486Y746599D02*
X1047178Y748292D01*
X1050564D01*
X1052257Y746599D01*
Y739828D01*
X1050564Y738135D01*
X1047178D01*
X1045486Y739828D01*
Y746599D01*
X1055642D02*
X1057335Y748292D01*
X1060721D01*
X1062413Y746599D01*
Y744906D01*
X1060721Y743213D01*
X1059028D01*
X1060721D01*
X1062413Y741521D01*
Y739828D01*
X1060721Y738135D01*
X1057335D01*
X1055642Y739828D01*
X1042100Y773692D02*
X1035329D01*
Y768614D01*
X1038715D01*
X1035329D01*
Y763535D01*
X1045486D02*
X1048871D01*
X1047179D01*
Y773692D01*
X1045486Y771999D01*
X1053950D02*
X1055642Y773692D01*
X1059028D01*
X1060721Y771999D01*
Y765228D01*
X1059028Y763535D01*
X1055642D01*
X1053950Y765228D01*
Y771999D01*
X1042100Y799091D02*
X1035329D01*
Y794013D01*
X1038715D01*
X1035329D01*
Y788935D01*
X1045486D02*
X1048871D01*
X1047178D01*
Y799091D01*
X1045486Y797399D01*
X1053950Y788935D02*
X1057335D01*
X1055642D01*
Y799091D01*
X1053950Y797399D01*
X1042100Y824492D02*
X1035329D01*
Y819413D01*
X1038715D01*
X1035329D01*
Y814335D01*
X1045486D02*
X1048871D01*
X1047178D01*
Y824492D01*
X1045486Y822799D01*
X1060721Y814335D02*
X1053950D01*
X1060721Y821106D01*
Y822799D01*
X1059028Y824492D01*
X1055642D01*
X1053950Y822799D01*
X1042100Y849892D02*
X1035329D01*
Y844813D01*
X1038715D01*
X1035329D01*
Y839735D01*
X1045486D02*
X1048871D01*
X1047178D01*
Y849892D01*
X1045486Y848199D01*
X1053950D02*
X1055642Y849892D01*
X1059028D01*
X1060721Y848199D01*
Y846506D01*
X1059028Y844813D01*
X1057335D01*
X1059028D01*
X1060721Y843120D01*
Y841428D01*
X1059028Y839735D01*
X1055642D01*
X1053950Y841428D01*
X1042100Y875292D02*
X1035329D01*
Y870213D01*
X1038715D01*
X1035329D01*
Y865135D01*
X1052257D02*
X1045486D01*
X1052257Y871906D01*
Y873599D01*
X1050564Y875292D01*
X1047178D01*
X1045486Y873599D01*
X1055642D02*
X1057335Y875292D01*
X1060721D01*
X1062413Y873599D01*
Y866828D01*
X1060721Y865135D01*
X1057335D01*
X1055642Y866828D01*
Y873599D01*
X1042100Y900692D02*
X1035329D01*
Y895613D01*
X1038715D01*
X1035329D01*
Y890535D01*
X1052257D02*
X1045486D01*
X1052257Y897306D01*
Y898999D01*
X1050564Y900692D01*
X1047178D01*
X1045486Y898999D01*
X1055642Y890535D02*
X1059028D01*
X1057335D01*
Y900692D01*
X1055642Y898999D01*
X1042100Y926092D02*
X1035329D01*
Y921013D01*
X1038715D01*
X1035329D01*
Y915935D01*
X1052257D02*
X1045486D01*
X1052257Y922706D01*
Y924399D01*
X1050564Y926092D01*
X1047178D01*
X1045486Y924399D01*
X1062413Y915935D02*
X1055642D01*
X1062413Y922706D01*
Y924399D01*
X1060721Y926092D01*
X1057335D01*
X1055642Y924399D01*
X1076329Y968388D02*
Y965002D01*
Y966695D01*
X1086486D01*
X1084793Y968388D01*
X1035329Y611135D02*
Y621292D01*
X1040407D01*
X1042100Y619599D01*
Y616213D01*
X1040407Y614521D01*
X1035329D01*
X1038715D02*
X1042100Y611135D01*
X609478Y749031D02*
Y742260D01*
X612863Y738874D01*
X616249Y742260D01*
Y749031D01*
X626406Y747338D02*
X624713Y749031D01*
X621327D01*
X619635Y747338D01*
Y740567D01*
X621327Y738874D01*
X624713D01*
X626406Y740567D01*
X636562Y747338D02*
X634870Y749031D01*
X631484D01*
X629791Y747338D01*
Y740567D01*
X631484Y738874D01*
X634870D01*
X636562Y740567D01*
X609458Y799830D02*
Y793059D01*
X612843Y789673D01*
X616229Y793059D01*
Y799830D01*
X626385Y798137D02*
X624693Y799830D01*
X621307D01*
X619614Y798137D01*
Y791366D01*
X621307Y789673D01*
X624693D01*
X626385Y791366D01*
X636542Y798137D02*
X634850Y799830D01*
X631464D01*
X629771Y798137D01*
Y791366D01*
X631464Y789673D01*
X634850D01*
X636542Y791366D01*
X616229Y825230D02*
X609458D01*
Y820152D01*
X612843D01*
X609458D01*
Y815073D01*
X619614Y823537D02*
X621307Y825230D01*
X624693D01*
X626385Y823537D01*
Y816766D01*
X624693Y815073D01*
X621307D01*
X619614Y816766D01*
Y823537D01*
X629771D02*
X631464Y825230D01*
X634849D01*
X636542Y823537D01*
Y816766D01*
X634849Y815073D01*
X631464D01*
X629771Y816766D01*
Y823537D01*
X616229Y850630D02*
X609458D01*
Y845552D01*
X612843D01*
X609458D01*
Y840473D01*
X619614Y848937D02*
X621307Y850630D01*
X624693D01*
X626385Y848937D01*
Y842166D01*
X624693Y840473D01*
X621307D01*
X619614Y842166D01*
Y848937D01*
X629771Y840473D02*
X633157D01*
X631464D01*
Y850630D01*
X629771Y848937D01*
X616229Y876030D02*
X609458D01*
Y870952D01*
X612843D01*
X609458D01*
Y865873D01*
X619614Y874337D02*
X621307Y876030D01*
X624693D01*
X626385Y874337D01*
Y867566D01*
X624693Y865873D01*
X621307D01*
X619614Y867566D01*
Y874337D01*
X636542Y865873D02*
X629771D01*
X636542Y872645D01*
Y874337D01*
X634850Y876030D01*
X631464D01*
X629771Y874337D01*
X616229Y901430D02*
X609458D01*
Y896352D01*
X612843D01*
X609458D01*
Y891273D01*
X619614Y899737D02*
X621307Y901430D01*
X624693D01*
X626385Y899737D01*
Y892966D01*
X624693Y891273D01*
X621307D01*
X619614Y892966D01*
Y899737D01*
X629771D02*
X631464Y901430D01*
X634849D01*
X636542Y899737D01*
Y898044D01*
X634849Y896352D01*
X633157D01*
X634849D01*
X636542Y894659D01*
Y892966D01*
X634849Y891273D01*
X631464D01*
X629771Y892966D01*
X616229Y926830D02*
X609458D01*
Y921752D01*
X612843D01*
X609458D01*
Y916673D01*
X619614D02*
X623000D01*
X621307D01*
Y926830D01*
X619614Y925137D01*
X628078D02*
X629771Y926830D01*
X633157D01*
X634850Y925137D01*
Y918366D01*
X633157Y916673D01*
X629771D01*
X628078Y918366D01*
Y925137D01*
X616229Y952230D02*
X609458D01*
Y947151D01*
X612843D01*
X609458D01*
Y942073D01*
X619614D02*
X623000D01*
X621307D01*
Y952230D01*
X619614Y950537D01*
X628078Y942073D02*
X631464D01*
X629771D01*
Y952230D01*
X628078Y950537D01*
X616229Y977630D02*
X609458D01*
Y972551D01*
X612843D01*
X609458D01*
Y967473D01*
X619614D02*
X623000D01*
X621307D01*
Y977630D01*
X619614Y975937D01*
X634849Y967473D02*
X628078D01*
X634849Y974244D01*
Y975937D01*
X633157Y977630D01*
X629771D01*
X628078Y975937D01*
X616229Y1003030D02*
X609458D01*
Y997951D01*
X612843D01*
X609458D01*
Y992873D01*
X619614D02*
X623000D01*
X621307D01*
Y1003030D01*
X619614Y1001337D01*
X628078D02*
X629771Y1003030D01*
X633157D01*
X634849Y1001337D01*
Y999644D01*
X633157Y997951D01*
X631464D01*
X633157D01*
X634849Y996259D01*
Y994566D01*
X633157Y992873D01*
X629771D01*
X628078Y994566D01*
X616229Y1028430D02*
X609458D01*
Y1023351D01*
X612843D01*
X609458D01*
Y1018273D01*
X626385D02*
X619614D01*
X626385Y1025044D01*
Y1026737D01*
X624693Y1028430D01*
X621307D01*
X619614Y1026737D01*
X629771D02*
X631464Y1028430D01*
X634849D01*
X636542Y1026737D01*
Y1019966D01*
X634849Y1018273D01*
X631464D01*
X629771Y1019966D01*
Y1026737D01*
X616229Y1053830D02*
X609458D01*
Y1048751D01*
X612843D01*
X609458D01*
Y1043673D01*
X626385D02*
X619614D01*
X626385Y1050444D01*
Y1052137D01*
X624693Y1053830D01*
X621307D01*
X619614Y1052137D01*
X629771Y1043673D02*
X633157D01*
X631464D01*
Y1053830D01*
X629771Y1052137D01*
X616229Y1079230D02*
X609458D01*
Y1074151D01*
X612843D01*
X609458D01*
Y1069073D01*
X626385D02*
X619614D01*
X626385Y1075844D01*
Y1077537D01*
X624693Y1079230D01*
X621307D01*
X619614Y1077537D01*
X636542Y1069073D02*
X629771D01*
X636542Y1075844D01*
Y1077537D01*
X634849Y1079230D01*
X631464D01*
X629771Y1077537D01*
X616229Y1104630D02*
X609458D01*
Y1099551D01*
X612843D01*
X609458D01*
Y1094473D01*
X626385D02*
X619614D01*
X626385Y1101244D01*
Y1102937D01*
X624693Y1104630D01*
X621307D01*
X619614Y1102937D01*
X629771D02*
X631464Y1104630D01*
X634849D01*
X636542Y1102937D01*
Y1101244D01*
X634849Y1099551D01*
X633157D01*
X634849D01*
X636542Y1097859D01*
Y1096166D01*
X634849Y1094473D01*
X631464D01*
X629771Y1096166D01*
X585457Y1121026D02*
Y1117641D01*
Y1119333D01*
X595614D01*
X593921Y1121026D01*
X609458Y764273D02*
Y774430D01*
X614536D01*
X616229Y772737D01*
Y769352D01*
X614536Y767659D01*
X609458D01*
X612843D02*
X616229Y764273D01*
X1062458Y1057078D02*
Y1050307D01*
X1065843Y1046922D01*
X1069229Y1050307D01*
Y1057078D01*
X1079386Y1055386D02*
X1077693Y1057078D01*
X1074307D01*
X1072614Y1055386D01*
Y1048614D01*
X1074307Y1046922D01*
X1077693D01*
X1079386Y1048614D01*
X1089542Y1055386D02*
X1087850Y1057078D01*
X1084464D01*
X1082771Y1055386D01*
Y1048614D01*
X1084464Y1046922D01*
X1087850D01*
X1089542Y1048614D01*
X586518Y647722D02*
X584825Y649415D01*
X581440D01*
X579747Y647722D01*
Y640951D01*
X581440Y639258D01*
X584825D01*
X586518Y640951D01*
Y644336D01*
X583133D01*
X589904Y639258D02*
Y649415D01*
X596675Y639258D01*
Y649415D01*
X600060D02*
Y639258D01*
X605139D01*
X606832Y640951D01*
Y647722D01*
X605139Y649415D01*
X600060D01*
X725662Y1128268D02*
Y1138425D01*
X730740D01*
X732433Y1136732D01*
Y1133346D01*
X730740Y1131654D01*
X725662D01*
X729047D02*
X732433Y1128268D01*
X735818D02*
Y1135039D01*
X739204Y1138425D01*
X742589Y1135039D01*
Y1128268D01*
Y1133346D01*
X735818D01*
X752746Y1136732D02*
X751053Y1138425D01*
X747668D01*
X745975Y1136732D01*
Y1135039D01*
X747668Y1133346D01*
X751053D01*
X752746Y1131654D01*
Y1129961D01*
X751053Y1128268D01*
X747668D01*
X745975Y1129961D01*
X756132Y1128268D02*
Y1138425D01*
X761210D01*
X762903Y1136732D01*
Y1133346D01*
X761210Y1131654D01*
X756132D01*
X766289Y1138425D02*
Y1128268D01*
X771367D01*
X773060Y1129961D01*
Y1131654D01*
X771367Y1133346D01*
X766289D01*
X771367D01*
X773060Y1135039D01*
Y1136732D01*
X771367Y1138425D01*
X766289D01*
X783216D02*
X776445D01*
Y1128268D01*
X783216D01*
X776445Y1133346D02*
X779831D01*
X786602Y1128268D02*
Y1138425D01*
X791680D01*
X793373Y1136732D01*
Y1133346D01*
X791680Y1131654D01*
X786602D01*
X789987D02*
X793373Y1128268D01*
X796759D02*
Y1138425D01*
X801837D01*
X803530Y1136732D01*
Y1133346D01*
X801837Y1131654D01*
X796759D01*
X800144D02*
X803530Y1128268D01*
X806915Y1138425D02*
Y1136732D01*
X810301Y1133346D01*
X813687Y1136732D01*
Y1138425D01*
X810301Y1133346D02*
Y1128268D01*
X817072Y1126575D02*
X823843D01*
X827229Y1128268D02*
Y1138425D01*
X832307D01*
X834000Y1136732D01*
Y1133346D01*
X832307Y1131654D01*
X827229D01*
X837386Y1138425D02*
X840771D01*
X839078D01*
Y1128268D01*
X837386D01*
X840771D01*
X845850Y1126575D02*
X852621D01*
X856006Y1128268D02*
Y1138425D01*
X861085D01*
X862777Y1136732D01*
Y1133346D01*
X861085Y1131654D01*
X856006D01*
X866163Y1138425D02*
X869549D01*
X867856D01*
Y1128268D01*
X866163D01*
X869549D01*
X881398Y1136732D02*
X879705Y1138425D01*
X876320D01*
X874627Y1136732D01*
Y1129961D01*
X876320Y1128268D01*
X879705D01*
X881398Y1129961D01*
X889862Y1138425D02*
X886476D01*
X884784Y1136732D01*
Y1129961D01*
X886476Y1128268D01*
X889862D01*
X891555Y1129961D01*
Y1136732D01*
X889862Y1138425D01*
X894940Y1126575D02*
X901712D01*
X911868Y1128268D02*
X905097D01*
X911868Y1135039D01*
Y1136732D01*
X910175Y1138425D01*
X906790D01*
X905097Y1136732D01*
X915254D02*
X916947Y1138425D01*
X920332D01*
X922025Y1136732D01*
Y1129961D01*
X920332Y1128268D01*
X916947D01*
X915254Y1129961D01*
Y1136732D01*
X932182Y1128268D02*
X925411D01*
X932182Y1135039D01*
Y1136732D01*
X930489Y1138425D01*
X927103D01*
X925411Y1136732D01*
X935567D02*
X937260Y1138425D01*
X940646D01*
X942338Y1136732D01*
Y1129961D01*
X940646Y1128268D01*
X937260D01*
X935567Y1129961D01*
Y1136732D01*
X1073036Y573078D02*
X1069650D01*
X1067958Y571386D01*
Y564614D01*
X1069650Y562922D01*
X1073036D01*
X1074729Y564614D01*
Y571386D01*
X1073036Y573078D01*
X1078114D02*
Y564614D01*
X1079807Y562922D01*
X1083193D01*
X1084886Y564614D01*
Y573078D01*
X1088271D02*
X1095042D01*
X1091657D01*
Y562922D01*
X581046Y720688D02*
X584431D01*
X582739D01*
Y710532D01*
X581046D01*
X584431D01*
X589510D02*
Y720688D01*
X596281Y710532D01*
Y720688D01*
M02*
